<svg width="34" height="34" viewBox="0 0 34 34" fill="none" xmlns="http://www.w3.org/2000/svg">
<g clip-path="url(#clip0_4_41)">
<path d="M33.5252 18.0445H27.5289C22.291 18.0445 18.0449 22.2906 18.0449 27.5284V33.5248C26.3118 32.9118 32.9122 26.3114 33.5252 18.0445Z" fill="#3B873E"/>
<path d="M15.527 33.5248V27.5284C15.527 22.2906 11.2808 18.0445 6.04299 18.0445H0.0466309C0.65959 26.3114 7.26004 32.9118 15.527 33.5248Z" fill="#3B873E"/>
<path d="M33.5252 15.5266C32.9122 7.25973 26.3118 0.659285 18.0449 0.0463257V6.04268C18.0449 11.2805 22.291 15.5266 27.5289 15.5266H33.5252Z" fill="#3B873E"/>
<path d="M15.527 0.0463257C7.26004 0.659285 0.65959 7.25973 0.0466309 15.5266H6.04299C11.2808 15.5266 15.527 11.2805 15.527 6.04268V0.0463257Z" fill="#3B873E"/>
<path d="M11.3999 16.7855C13.7268 15.6229 15.6232 13.7265 16.7858 11.3996C17.9484 13.7265 19.8447 15.6229 22.1717 16.7855C19.8447 17.9481 17.9484 19.8445 16.7858 22.1714C15.6232 19.8445 13.7268 17.9481 11.3999 16.7855Z" fill="#4CAF50"/>
</g>
<defs>
<clipPath id="clip0_4_41">
<rect width="33.5714" height="33.5714" fill="white"/>
</clipPath>
</defs>
</svg>
