<svg width="168" height="40" viewBox="0 0 168 40" fill="none" xmlns="http://www.w3.org/2000/svg">
<g clip-path="url(#clip0_56_18)">
<path d="M39.9448 21.4998H32.8002C26.5593 21.4998 21.5002 26.559 21.5002 32.7998V39.9444C31.3501 39.214 39.2144 31.3497 39.9448 21.4998Z" fill="#3B873E"/>
<path d="M18.5003 39.9444V32.7998C18.5003 26.559 13.4411 21.4998 7.20026 21.4998H0.0556641C0.785998 31.3497 8.65036 39.214 18.5003 39.9444Z" fill="#3B873E"/>
<path d="M39.9448 18.4998C39.2144 8.64987 31.3501 0.78551 21.5002 0.0551758V7.19977C21.5002 13.4406 26.5593 18.4998 32.8002 18.4998H39.9448Z" fill="#3B873E"/>
<path d="M18.5003 0.0551758C8.65036 0.78551 0.785998 8.64987 0.0556641 18.4998H7.20026C13.4411 18.4998 18.5003 13.4406 18.5003 7.19977V0.0551758Z" fill="#3B873E"/>
<path d="M13.583 19.9998C16.3555 18.6145 18.615 16.355 20.0002 13.5825C21.3855 16.355 23.6449 18.6145 26.4175 19.9998C23.6449 21.385 21.3855 23.6445 20.0002 26.417C18.615 23.6445 16.3555 21.385 13.583 19.9998Z" fill="#4CAF50"/>
</g>
<path d="M45.144 26V14.848H47.208V19.504H50.904V14.848H52.968V26H50.904V21.264H47.208V26H45.144ZM59.3894 26.192C58.3814 26.192 57.5307 25.9547 56.8374 25.48C56.1494 25 55.6267 24.328 55.2694 23.464C54.912 22.6 54.7334 21.584 54.7334 20.416C54.7334 19.2587 54.9094 18.248 55.2614 17.384C55.6134 16.52 56.1307 15.8507 56.8134 15.376C57.5014 14.896 58.344 14.656 59.3414 14.656C60.3814 14.656 61.2454 14.8987 61.9334 15.384C62.6267 15.8693 63.1467 16.544 63.4934 17.408C63.84 18.272 64.0134 19.2747 64.0134 20.416C64.0134 21.584 63.8347 22.6 63.4774 23.464C63.12 24.328 62.5974 25 61.9094 25.48C61.2214 25.9547 60.3814 26.192 59.3894 26.192ZM59.3894 24.48C60.088 24.48 60.6774 24.144 61.1574 23.472C61.6427 22.7947 61.8854 21.76 61.8854 20.368C61.8854 19.0293 61.6587 18.0213 61.2054 17.344C60.7574 16.6613 60.136 16.32 59.3414 16.32C58.568 16.32 57.9627 16.6613 57.5254 17.344C57.0934 18.0267 56.8774 19.04 56.8774 20.384C56.8774 21.776 57.1067 22.808 57.5654 23.48C58.0294 24.1467 58.6374 24.48 59.3894 24.48ZM65.7846 26V14.656H65.9446L70.4566 19.976L74.9366 14.656H75.1126V26H73.1286V21.216L73.2006 19.328L72.6326 20.192L70.4406 22.768L68.2486 20.192L67.6806 19.328L67.7686 21.216V26H65.7846ZM77.4523 26V14.848H83.2763V16.592H79.4523V19.2H82.4923V20.896H79.4523V24.192H83.5963V26H77.4523ZM88.0759 26.176C87.2919 26.176 86.6065 26.0453 86.0199 25.784C85.4332 25.5227 85.0039 25.248 84.7319 24.96L85.5479 23.28C85.6599 23.424 85.8359 23.5867 86.0759 23.768C86.3212 23.9493 86.6039 24.1093 86.9239 24.248C87.2492 24.3813 87.5852 24.448 87.9319 24.448C88.3319 24.448 88.6785 24.336 88.9719 24.112C89.2705 23.888 89.4199 23.5573 89.4199 23.12C89.4199 22.688 89.2652 22.3467 88.9559 22.096C88.6519 21.84 88.2359 21.552 87.7079 21.232C87.2759 20.9707 86.8519 20.6933 86.4359 20.4C86.0199 20.1013 85.6732 19.7387 85.3959 19.312C85.1239 18.88 84.9879 18.336 84.9879 17.68C84.9879 16.8 85.2679 16.0773 85.8279 15.512C86.3932 14.9413 87.2119 14.656 88.2839 14.656C88.8279 14.656 89.2892 14.72 89.6679 14.848C90.0519 14.976 90.3612 15.1227 90.5959 15.288C90.8359 15.4533 91.0145 15.5893 91.1319 15.696L90.2359 17.328C90.1612 17.2213 90.0359 17.0907 89.8599 16.936C89.6839 16.7813 89.4679 16.6453 89.2119 16.528C88.9559 16.4107 88.6732 16.352 88.3639 16.352C87.9319 16.352 87.6065 16.4773 87.3879 16.728C87.1745 16.9733 87.0679 17.264 87.0679 17.6C87.0679 18.032 87.2252 18.384 87.5399 18.656C87.8599 18.928 88.2465 19.2 88.6999 19.472C89.2012 19.7707 89.6652 20.072 90.0919 20.376C90.5185 20.6747 90.8625 21.0347 91.1239 21.456C91.3852 21.872 91.5159 22.4053 91.5159 23.056C91.5159 24.032 91.2092 24.7973 90.5959 25.352C89.9825 25.9013 89.1425 26.176 88.0759 26.176ZM94.9485 26V16.656H92.3725V14.848H99.5885V16.656H97.0125V26H94.9485ZM99.1811 26L103.901 14.656H104.061L108.797 26H106.621L105.997 24.384H102.013L101.421 26H99.1811ZM103.709 19.792L102.589 22.832H105.405L104.237 19.792L103.965 18.896L103.709 19.792ZM111.093 26V21.496L107.572 14.848H109.829L112.173 19.696L114.421 14.848H116.661L113.141 21.64V26H111.093ZM119.197 26L123.917 14.656H124.077L128.813 26H126.637L126.013 24.384H122.029L121.437 26H119.197ZM123.725 19.792L122.605 22.832H125.421L124.253 19.792L123.981 18.896L123.725 19.792ZM129.691 26V14.848H135.515V16.608H131.739V19.536H135.035V21.328H131.739V26H129.691ZM144.333 26H141.853L138.989 21.968V26H136.957V14.848H140.061C140.818 14.848 141.495 14.96 142.093 15.184C142.69 15.4027 143.162 15.7707 143.509 16.288C143.855 16.8053 144.029 17.5093 144.029 18.4C144.029 18.8853 143.946 19.3867 143.781 19.904C143.621 20.416 143.351 20.8747 142.973 21.28C142.599 21.6853 142.093 21.968 141.453 22.128L144.333 26ZM138.989 20.96H139.837C140.306 20.96 140.698 20.8507 141.013 20.632C141.333 20.408 141.573 20.1173 141.733 19.76C141.898 19.3973 141.981 19.008 141.981 18.592C141.981 17.872 141.815 17.336 141.485 16.984C141.154 16.6267 140.589 16.448 139.789 16.448H138.989V20.96ZM146.155 26V14.848H148.203V26H146.155ZM154.558 26.192C153.976 26.192 153.416 26.0747 152.878 25.84C152.339 25.6 151.854 25.24 151.422 24.76C150.995 24.2747 150.656 23.6587 150.406 22.912C150.155 22.1653 150.03 21.2853 150.03 20.272C150.03 19.056 150.24 18.032 150.662 17.2C151.088 16.3627 151.656 15.7307 152.366 15.304C153.08 14.872 153.87 14.656 154.734 14.656C155.32 14.656 155.798 14.712 156.166 14.824C156.539 14.936 156.835 15.0693 157.054 15.224C157.278 15.3787 157.459 15.52 157.598 15.648L156.702 17.328C156.472 17.0773 156.235 16.8773 155.99 16.728C155.744 16.5733 155.352 16.496 154.814 16.496C154.27 16.496 153.806 16.6533 153.422 16.968C153.043 17.2827 152.752 17.7173 152.55 18.272C152.352 18.8213 152.254 19.4507 152.254 20.16C152.254 21.552 152.486 22.6027 152.95 23.312C153.419 24.016 153.982 24.368 154.638 24.368C155.144 24.368 155.576 24.296 155.934 24.152C156.291 24.008 156.558 23.8453 156.734 23.664L157.614 25.248C157.464 25.3707 157.264 25.5067 157.014 25.656C156.768 25.8 156.446 25.9253 156.046 26.032C155.651 26.1387 155.155 26.192 154.558 26.192ZM157.775 26L162.495 14.656H162.655L167.391 26H165.215L164.591 24.384H160.607L160.015 26H157.775ZM162.303 19.792L161.183 22.832H163.999L162.831 19.792L162.559 18.896L162.303 19.792Z" fill="#3B873E"/>
<defs>
<clipPath id="clip0_56_18">
<rect width="40" height="40" fill="white"/>
</clipPath>
</defs>
</svg>
